<svg id="Layer_1" data-name="Layer 1" xmlns="http://www.w3.org/2000/svg" viewBox="0 0 27.73 28.93"><defs><style>.cls-1{fill:#fff;fill-rule:evenodd;}</style></defs><title>search</title><path class="cls-1" d="M27.69,28a.83.83,0,0,0-.08-.2l-.11-.17-.26-.31c-.2-.23-.5-.54-.88-.94-.61-.63-1.22-1.26-2.7-2.76S21.57,21.51,21,20.88L20.12,20l-.2-.23a.76.76,0,0,1,.06.16c.06.21.06.21-.2.7a12,12,0,0,0,3.66-8.67A11.83,11.83,0,0,0,11.72,0,11.83,11.83,0,0,0,0,11.93,11.83,11.83,0,0,0,11.72,23.87l.45,0,.4,0a6.3,6.3,0,0,1,.67,0,5.9,5.9,0,0,0,1.33-.27l.23-.06.72-.22.31-.1a.73.73,0,0,0,.46-.91.71.71,0,0,0-.89-.47l-.3.09-.7.21-.22.06a6.88,6.88,0,0,1-1,.22,7.21,7.21,0,0,0-.81.06l-.37,0-.35,0A10.4,10.4,0,0,1,1.42,11.93,10.4,10.4,0,0,1,11.72,1.45,10.4,10.4,0,0,1,22,11.93a10.54,10.54,0,0,1-3.22,7.62c-.26.5-.26.5-.2.72a.83.83,0,0,0,.08.2l.11.16.26.31c.2.23.5.54.88.94.61.63,1.23,1.27,2.7,2.76s2.09,2.12,2.69,2.75l.85.91.2.23a.74.74,0,0,1-.07-.17c-.06-.23-.06-.23.23-.72a.73.73,0,0,0-.08,1,.7.7,0,0,0,1,.09c.29-.5.29-.5.23-.74Z"/></svg>